<svg width="24" height="24" viewBox="0 0 24 24" fill="none" xmlns="http://www.w3.org/2000/svg">
<path d="M15.3938 16.455L21.2197 22.2803C21.3612 22.4169 21.5507 22.4925 21.7473 22.4908C21.9439 22.489 22.1321 22.4102 22.2711 22.2711C22.4102 22.1321 22.489 21.9439 22.4908 21.7473C22.4925 21.5507 22.4169 21.3612 22.2803 21.2197L2.78025 1.71975C2.71106 1.64812 2.62831 1.59098 2.5368 1.55167C2.4453 1.51237 2.34689 1.49168 2.2473 1.49081C2.14772 1.48995 2.04896 1.50892 1.95678 1.54663C1.86461 1.58434 1.78087 1.64003 1.71045 1.71045C1.64003 1.78087 1.58434 1.86461 1.54663 1.95678C1.50892 2.04896 1.48995 2.14772 1.49081 2.2473C1.49168 2.34689 1.51237 2.4453 1.55167 2.5368C1.59098 2.62831 1.64812 2.71106 1.71975 2.78025L5.61225 6.67275C2.61975 9.03525 1.54425 12.4852 1.52925 12.54C1.40925 12.9375 1.63425 13.35 2.03175 13.47C2.42925 13.59 2.84925 13.365 2.96925 12.9675C3.024 12.777 3.98775 9.72525 6.66375 7.725L9.045 10.1062C8.5795 10.5114 8.20232 11.008 7.93691 11.5652C7.6715 12.1224 7.52353 12.7282 7.50219 13.3449C7.48086 13.9617 7.58662 14.5763 7.8129 15.1504C8.03918 15.7246 8.38114 16.2461 8.81752 16.6825C9.25391 17.1189 9.77539 17.4608 10.3496 17.6871C10.9237 17.9134 11.5383 18.0191 12.1551 17.9978C12.7718 17.9765 13.3776 17.8285 13.9348 17.5631C14.492 17.2977 14.9886 16.9205 15.3938 16.455ZM14.3295 15.39C14.0646 15.7158 13.7342 15.9824 13.3598 16.1725C12.9854 16.3626 12.5752 16.472 12.1558 16.4936C11.7365 16.5151 11.3172 16.4484 10.9253 16.2977C10.5333 16.1471 10.1773 15.9158 9.8804 15.6188C9.58347 15.3219 9.35218 14.966 9.2015 14.574C9.05082 14.182 8.98411 13.7628 9.00568 13.3434C9.02725 12.924 9.13663 12.5139 9.32673 12.1394C9.51683 11.765 9.78342 11.4346 10.1093 11.1697L14.3295 15.39ZM11.6648 9.012L13.6395 10.9875C13.9875 11.2147 14.2845 11.5125 14.5125 11.8597L16.488 13.8353C16.4955 13.7243 16.4995 13.6125 16.5 13.5C16.5001 12.8808 16.3723 12.2682 16.1248 11.7006C15.8772 11.133 15.5152 10.6226 15.0613 10.2013C14.6075 9.78002 14.0716 9.45696 13.4871 9.25232C12.9027 9.04768 12.2823 8.96587 11.6648 9.012ZM7.9425 5.28975L9.10125 6.45C10.0361 6.1454 11.0138 5.99345 11.997 6C18.8258 6 20.9333 12.6773 21.0255 12.9675C21.123 13.29 21.423 13.5 21.7455 13.5V13.4925C21.8623 13.4936 21.9777 13.4672 22.0825 13.4155C22.1872 13.3637 22.2783 13.2881 22.3483 13.1946C22.4184 13.1012 22.4656 12.9926 22.4859 12.8775C22.5063 12.7625 22.4993 12.6443 22.4655 12.5325C22.4423 12.4575 19.9597 4.5 11.9963 4.5C10.4437 4.5 9.09975 4.80225 7.94175 5.28975" fill="#007AFF"/>
</svg>
